<!DOCTYPE svg PUBLIC "-//W3C//DTD SVG 1.1//EN" "http://www.w3.org/Graphics/SVG/1.1/DTD/svg11.dtd">
<!-- Uploaded to: SVG Repo, www.svgrepo.com, Transformed by: SVG Repo Mixer Tools -->
<svg height="800px" width="800px" version="1.1" id="Layer_1" xmlns="http://www.w3.org/2000/svg" xmlns:xlink="http://www.w3.org/1999/xlink" viewBox="0 0 511.997 511.997" xml:space="preserve" fill="#545454" stroke="#545454" stroke-width="10.23994">
<g id="SVGRepo_bgCarrier" stroke-width="0"/>
<g id="SVGRepo_tracerCarrier" stroke-linecap="round" stroke-linejoin="round"/>
<g id="SVGRepo_iconCarrier"> <g> <polygon style="fill:#ffffff;" points="255.997,511.997 97.101,511.997 35.308,158.894 97.101,52.963 255.997,52.963 "/> <polygon style="fill:#ffffff;" points="97.101,52.966 255.997,52.966 255.997,0 97.101,0 "/> <g> <polygon style="fill:#ffffff;" points="141.239,52.966 158.894,52.966 158.894,0 141.239,0 "/> <polygon style="fill:#ffffff;" points="194.204,52.966 211.859,52.966 211.859,0 194.204,0 "/> </g> <g> <path style="fill:#ffffff;" d="M211.859,123.584h-88.276c-4.882,0-8.828-3.955-8.828-8.828c0-4.873,3.946-8.828,8.828-8.828 h88.276c4.882,0,8.828,3.955,8.828,8.828C220.687,119.629,216.741,123.584,211.859,123.584"/> <path style="fill:#ffffff;" d="M203.032,141.239c-4.882,0-8.828-3.955-8.828-8.828v-26.483c0-4.873,3.946-8.828,8.828-8.828 c4.882,0,8.828,3.955,8.828,8.828v26.483C211.859,137.284,207.913,141.239,203.032,141.239"/> </g> <polygon style="fill:#ffffff;" points="255.997,509.595 476.687,288.906 364.329,176.548 255.997,284.88 "/> <polygon style="fill:#ffffff;" points="334.689,206.191 447.047,318.549 476.69,288.906 364.332,176.548 "/> </g> </g>
</svg>